<svg id="visual" viewBox="0 0 900 600" width="900" height="600" xmlns="http://www.w3.org/2000/svg" xmlns:xlink="http://www.w3.org/1999/xlink" version="1.1"><path d="M0 37L25 36C50 35 100 33 150 33C200 33 250 35 300 40C350 45 400 53 450 53C500 53 550 45 600 44C650 43 700 49 750 48C800 47 850 39 875 35L900 31L900 0L875 0C850 0 800 0 750 0C700 0 650 0 600 0C550 0 500 0 450 0C400 0 350 0 300 0C250 0 200 0 150 0C100 0 50 0 25 0L0 0Z" fill="#125081"></path><path d="M0 211L25 207C50 203 100 195 150 199C200 203 250 219 300 211C350 203 400 171 450 163C500 155 550 171 600 189C650 207 700 227 750 215C800 203 850 159 875 137L900 115L900 29L875 33C850 37 800 45 750 46C700 47 650 41 600 42C550 43 500 51 450 51C400 51 350 43 300 38C250 33 200 31 150 31C100 31 50 33 25 34L0 35Z" fill="#0e4774"></path><path d="M0 253L25 249C50 245 100 237 150 237C200 237 250 245 300 232C350 219 400 185 450 181C500 177 550 203 600 226C650 249 700 269 750 254C800 239 850 189 875 164L900 139L900 113L875 135C850 157 800 201 750 213C700 225 650 205 600 187C550 169 500 153 450 161C400 169 350 201 300 209C250 217 200 201 150 197C100 193 50 201 25 205L0 209Z" fill="#093f68"></path><path d="M0 277L25 275C50 273 100 269 150 268C200 267 250 269 300 259C350 249 400 227 450 223C500 219 550 233 600 254C650 275 700 303 750 288C800 273 850 215 875 186L900 157L900 137L875 162C850 187 800 237 750 252C700 267 650 247 600 224C550 201 500 175 450 179C400 183 350 217 300 230C250 243 200 235 150 235C100 235 50 243 25 247L0 251Z" fill="#05365c"></path><path d="M0 307L25 310C50 313 100 319 150 325C200 331 250 337 300 327C350 317 400 291 450 286C500 281 550 297 600 314C650 331 700 349 750 334C800 319 850 271 875 247L900 223L900 155L875 184C850 213 800 271 750 286C700 301 650 273 600 252C550 231 500 217 450 221C400 225 350 247 300 257C250 267 200 265 150 266C100 267 50 271 25 273L0 275Z" fill="#022e50"></path><path d="M0 325L25 328C50 331 100 337 150 345C200 353 250 363 300 355C350 347 400 321 450 317C500 313 550 331 600 346C650 361 700 373 750 359C800 345 850 305 875 285L900 265L900 221L875 245C850 269 800 317 750 332C700 347 650 329 600 312C550 295 500 279 450 284C400 289 350 315 300 325C250 335 200 329 150 323C100 317 50 311 25 308L0 305Z" fill="#012948"></path><path d="M0 343L25 351C50 359 100 375 150 388C200 401 250 411 300 402C350 393 400 365 450 360C500 355 550 373 600 384C650 395 700 399 750 386C800 373 850 343 875 328L900 313L900 263L875 283C850 303 800 343 750 357C700 371 650 359 600 344C550 329 500 311 450 315C400 319 350 345 300 353C250 361 200 351 150 343C100 335 50 329 25 326L0 323Z" fill="#022744"></path><path d="M0 469L25 465C50 461 100 453 150 453C200 453 250 461 300 459C350 457 400 445 450 442C500 439 550 445 600 447C650 449 700 447 750 437C800 427 850 409 875 400L900 391L900 311L875 326C850 341 800 371 750 384C700 397 650 393 600 382C550 371 500 353 450 358C400 363 350 391 300 400C250 409 200 399 150 386C100 373 50 357 25 349L0 341Z" fill="#03243f"></path><path d="M0 547L25 543C50 539 100 531 150 532C200 533 250 543 300 552C350 561 400 569 450 568C500 567 550 557 600 550C650 543 700 539 750 537C800 535 850 535 875 535L900 535L900 389L875 398C850 407 800 425 750 435C700 445 650 447 600 445C550 443 500 437 450 440C400 443 350 455 300 457C250 459 200 451 150 451C100 451 50 459 25 463L0 467Z" fill="#03223b"></path><path d="M0 601L25 601C50 601 100 601 150 601C200 601 250 601 300 601C350 601 400 601 450 601C500 601 550 601 600 601C650 601 700 601 750 601C800 601 850 601 875 601L900 601L900 533L875 533C850 533 800 533 750 535C700 537 650 541 600 548C550 555 500 565 450 566C400 567 350 559 300 550C250 541 200 531 150 530C100 529 50 537 25 541L0 545Z" fill="#042037"></path></svg>